<svg id="visual" viewBox="0 0 1280 720" width="1280" height="720" xmlns="http://www.w3.org/2000/svg" xmlns:xlink="http://www.w3.org/1999/xlink" version="1.1"><rect x="0" y="0" width="1280" height="720" fill="#001220"></rect><defs><linearGradient id="grad1_0" x1="43.8%" y1="0%" x2="100%" y2="100%"><stop offset="14.444444444444446%" stop-color="#7f3bda" stop-opacity="1"></stop><stop offset="85.55555555555554%" stop-color="#7f3bda" stop-opacity="1"></stop></linearGradient></defs><defs><linearGradient id="grad1_1" x1="43.8%" y1="0%" x2="100%" y2="100%"><stop offset="14.444444444444446%" stop-color="#7f3bda" stop-opacity="1"></stop><stop offset="85.55555555555554%" stop-color="#003684" stop-opacity="1"></stop></linearGradient></defs><defs><linearGradient id="grad1_2" x1="43.8%" y1="0%" x2="100%" y2="100%"><stop offset="14.444444444444446%" stop-color="#001220" stop-opacity="1"></stop><stop offset="85.55555555555554%" stop-color="#003684" stop-opacity="1"></stop></linearGradient></defs><defs><linearGradient id="grad2_0" x1="0%" y1="0%" x2="56.3%" y2="100%"><stop offset="14.444444444444446%" stop-color="#7f3bda" stop-opacity="1"></stop><stop offset="85.55555555555554%" stop-color="#7f3bda" stop-opacity="1"></stop></linearGradient></defs><defs><linearGradient id="grad2_1" x1="0%" y1="0%" x2="56.3%" y2="100%"><stop offset="14.444444444444446%" stop-color="#003684" stop-opacity="1"></stop><stop offset="85.55555555555554%" stop-color="#7f3bda" stop-opacity="1"></stop></linearGradient></defs><defs><linearGradient id="grad2_2" x1="0%" y1="0%" x2="56.3%" y2="100%"><stop offset="14.444444444444446%" stop-color="#003684" stop-opacity="1"></stop><stop offset="85.55555555555554%" stop-color="#001220" stop-opacity="1"></stop></linearGradient></defs><g transform="translate(1280, 0)"><path d="M0 324C-43.7 293.5 -87.3 263.1 -138.5 239.9C-189.7 216.7 -248.4 200.8 -280.6 162C-312.8 123.2 -318.4 61.6 -324 0L0 0Z" fill="#002651"></path><path d="M0 216C-29.1 195.7 -58.2 175.4 -92.3 159.9C-126.5 144.5 -165.6 133.8 -187.1 108C-208.5 82.2 -212.3 41.1 -216 0L0 0Z" fill="#323fb3"></path><path d="M0 108C-14.6 97.8 -29.1 87.7 -46.2 80C-63.2 72.2 -82.8 66.9 -93.5 54C-104.3 41.1 -106.1 20.5 -108 0L0 0Z" fill="#7f3bda"></path></g><g transform="translate(0, 720)"><path d="M0 -324C51.7 -307.4 103.3 -290.8 153.5 -265.9C203.7 -240.9 252.4 -207.7 280.6 -162C308.8 -116.3 316.4 -58.2 324 0L0 0Z" fill="#002651"></path><path d="M0 -216C34.4 -204.9 68.9 -193.9 102.3 -177.2C135.8 -160.6 168.3 -138.5 187.1 -108C205.8 -77.5 210.9 -38.8 216 0L0 0Z" fill="#323fb3"></path><path d="M0 -108C17.2 -102.5 34.4 -96.9 51.2 -88.6C67.9 -80.3 84.1 -69.2 93.5 -54C102.9 -38.8 105.5 -19.4 108 0L0 0Z" fill="#7f3bda"></path></g></svg>